<svg>
  <svg id="add" xmlns="http://www.w3.org/2000/svg" viewBox="0 0 24 24">
    <path fill="#eee" d="M19 13h-6v6h-2v-6H5v-2h6V5h2v6h6v2z"/>
  </svg>
  <svg id="delete" xmlns="http://www.w3.org/2000/svg" viewBox="0 0 24 24">
    <path fill="#eee" d="M19 13H5v-2h14v2z"/>
  </svg>
  <svg id="up" xmlns="http://www.w3.org/2000/svg" viewBox="0 0 24 24">
    <path fill="#eee" d="M7.41 15.41L12 10.83l4.59 4.58L18 14l-6-6-6 6z"/>
  </svg>
  <svg id="down" xmlns="http://www.w3.org/2000/svg" viewBox="0 0 24 24">
    <path fill="#eee" d="M7.41 8.59L12 13.17l4.59-4.58L18 10l-6 6-6-6 1.41-1.41z"/>
  </svg>
  <svg id="folder" xmlns="http://www.w3.org/2000/svg" viewBox="0 0 24 24">
    <path fill="#eee" d="M10 4H4c-1.1 0-1.99.9-1.99 2L2 18c0 1.1.9 2 2 2h16c1.1 0 2-.9 2-2V8c0-1.1-.9-2-2-2h-8l-2-2z"/>
  </svg>
</svg>