<svg version="1.1" xmlns="http://www.w3.org/2000/svg" xmlns:xlink="http://www.w3.org/1999/xlink" width="18px" height="144px" viewBox="0 0 18 144">
	<path fill="#ccc" d="M14.25,56.25H3.75c-0.833,0-1.5,0.675-1.5,1.5v10.5c0,0.824,0.667,1.5,1.5,1.5h10.5
		c0.832,0,1.5-0.676,1.5-1.5v-10.5C15.75,56.925,15.082,56.25,14.25,56.25z M7.5,66.75L3.75,63l1.058-1.058L7.5,64.627l5.691-5.692
		L14.25,60L7.5,66.75z"/>
	<path fill="#444" d="M14.25,20.25H3.75c-0.833,0-1.5,0.675-1.5,1.5v10.5c0,0.824,0.667,1.5,1.5,1.5h10.5
		c0.832,0,1.5-0.676,1.5-1.5v-10.5C15.75,20.925,15.082,20.25,14.25,20.25z M7.5,30.75L3.75,27l1.058-1.058L7.5,28.627l5.691-5.692
		L14.25,24L7.5,30.75z"/>
	<path fill="#ccc" d="M14.25,39.75v10.5H3.75v-10.5H14.25 M14.25,38.25H3.75c-0.825,0-1.5,0.675-1.5,1.5v10.5
		c0,0.824,0.675,1.5,1.5,1.5h10.5c0.824,0,1.5-0.676,1.5-1.5v-10.5C15.75,38.925,15.074,38.25,14.25,38.25z"/>
	<path fill="#444" d="M14.25,3.75v10.5H3.75V3.75H14.25 M14.25,2.25H3.75c-0.825,0-1.5,0.675-1.5,1.5v10.5
		c0,0.824,0.675,1.5,1.5,1.5h10.5c0.824,0,1.5-0.676,1.5-1.5V3.75C15.75,2.925,15.074,2.25,14.25,2.25z"/>
	<path fill="#ccc" d="M9,131.25c-2.07,0-3.75,1.68-3.75,3.75s1.68,3.75,3.75,3.75s3.75-1.68,3.75-3.75S11.07,131.25,9,131.25z
		M9,127.5c-4.141,0-7.5,3.359-7.5,7.5s3.359,7.5,7.5,7.5s7.5-3.359,7.5-7.5S13.141,127.5,9,127.5z M9,141c-3.314,0-6-2.686-6-6
		s2.686-6,6-6s6,2.686,6,6S12.314,141,9,141z"/>
	<path fill="#ccc" d="M9,131.25c-2.07,0-3.75,1.68-3.75,3.75s1.68,3.75,3.75,3.75s3.75-1.68,3.75-3.75S11.07,131.25,9,131.25z
			M9,127.5c-4.141,0-7.5,3.359-7.5,7.5s3.359,7.5,7.5,7.5s7.5-3.359,7.5-7.5S13.141,127.5,9,127.5z M9,141c-3.314,0-6-2.686-6-6
		s2.686-6,6-6s6,2.686,6,6S12.314,141,9,141z"/>
	<path fill="#444" d="M9,95.25c-2.07,0-3.75,1.68-3.75,3.75s1.68,3.75,3.75,3.75s3.75-1.679,3.75-3.75S11.07,95.25,9,95.25z
		M9,91.5c-4.141,0-7.5,3.359-7.5,7.5c0,4.14,3.359,7.5,7.5,7.5s7.5-3.359,7.5-7.5C16.5,94.859,13.141,91.5,9,91.5z M9,105
		c-3.314,0-6-2.686-6-6c0-3.314,2.686-6,6-6s6,2.686,6,6C15,102.314,12.314,105,9,105z"/>
	<path fill="#ccc" d="M9,109.5c-4.141,0-7.5,3.359-7.5,7.5s3.359,7.5,7.5,7.5s7.5-3.359,7.5-7.5S13.141,109.5,9,109.5z M9,123
		c-3.314,0-6-2.686-6-6s2.686-6,6-6s6,2.686,6,6S12.314,123,9,123z"/>
	<path fill="#444" d="M9,73.5c-4.141,0-7.5,3.359-7.5,7.5s3.359,7.5,7.5,7.5s7.5-3.359,7.5-7.5S13.141,73.5,9,73.5z M9,87
		c-3.314,0-6-2.686-6-6s2.686-6,6-6s6,2.686,6,6S12.314,87,9,87z"/>
</svg>
