<svg xmlns="http://www.w3.org/2000/svg" xmlns:xlink="http://www.w3.org/1999/xlink" width="384px" height="216px" viewBox="0 0 384 216">
	<rect fill="#ccc" width="384" height="216"/>
	<path fill="#eee" d="M49.037,59.495H37.052V53.34h30.664v6.154H55.731V91.13h-6.694V59.495z"/>
	<path fill="#eee" d="M73.435,51.721h6.532v15.278c1.835-2.646,4.481-4.967,8.908-4.967c6.424,0,10.149,4.319,10.149,10.905
		V91.13h-6.532V74.935c0-4.427-2.213-6.964-6.1-6.964c-3.779,0-6.424,2.645-6.424,7.072V91.13h-6.532V51.721z"/>
	<path fill="#eee" d="M106.579,80.765V62.626h6.532v16.196c0,4.427,2.213,6.91,6.101,6.91c3.779,0,6.424-2.591,6.424-7.018
		V62.626h6.586V91.13h-6.586v-4.427c-1.835,2.699-4.481,5.021-8.908,5.021C110.304,91.724,106.579,87.405,106.579,80.765z"/>
	<path fill="#eee" d="M140.371,62.626h6.532v4.319c1.835-2.537,4.319-4.913,8.691-4.913c4.103,0,7.018,1.998,8.53,5.021
		c2.268-3.023,5.291-5.021,9.609-5.021c6.208,0,9.987,3.941,9.987,10.905V91.13h-6.532V74.935c0-4.535-2.105-6.964-5.776-6.964
		c-3.563,0-6.1,2.483-6.1,7.072V91.13h-6.532v-16.25c0-4.427-2.16-6.91-5.777-6.91c-3.617,0-6.1,2.699-6.1,7.072V91.13h-6.532
		V62.626z"/>
	<path fill="#eee" d="M198.184,86.704v4.427h-6.532v-39.41h6.532v15.656c2.105-2.969,5.075-5.345,9.718-5.345
		c6.694,0,13.227,5.291,13.227,14.792v0.108c0,9.448-6.479,14.792-13.227,14.792C203.15,91.724,200.182,89.349,198.184,86.704z
		 M214.487,76.932v-0.108c0-5.506-3.725-9.124-8.151-9.124s-8.313,3.671-8.313,9.124v0.108c0,5.453,3.887,9.124,8.313,9.124
		C210.816,86.056,214.487,82.547,214.487,76.932z"/>
	<path fill="#eee" d="M227.871,62.626h6.532v4.373c1.836-2.646,4.481-4.967,8.908-4.967c6.424,0,10.149,4.319,10.149,10.905
		V91.13h-6.532V74.935c0-4.427-2.214-6.964-6.101-6.964c-3.779,0-6.425,2.645-6.425,7.072V91.13h-6.532V62.626z"/>
	<path fill="#eee" d="M259.45,82.925v-0.108c0-6.154,4.805-9.177,11.769-9.177c3.185,0,5.452,0.486,7.666,1.188v-0.702
		c0-4.049-2.483-6.208-7.072-6.208c-3.186,0-5.561,0.702-8.152,1.782l-1.728-5.129c3.132-1.403,6.209-2.321,10.743-2.321
		c4.266,0,7.45,1.134,9.448,3.185c2.105,2.052,3.077,5.075,3.077,8.8V91.13h-6.371v-3.563c-1.943,2.321-4.912,4.157-9.285,4.157
		C264.2,91.724,259.45,88.647,259.45,82.925z M278.992,80.873V78.93c-1.673-0.648-3.887-1.134-6.478-1.134
		c-4.211,0-6.694,1.782-6.694,4.751v0.108c0,2.753,2.429,4.319,5.561,4.319C275.699,86.974,278.992,84.49,278.992,80.873z"/>
	<path fill="#eee" d="M293.134,52.045h7.019v6.208h-7.019V52.045z M293.403,62.626h6.532V91.13h-6.532V62.626z"/>
	<path fill="#eee" d="M308.841,51.721h6.532v39.41h-6.532V51.721z"/>
	<path fill="#eee" d="M39.157,139.873v-21.756h6.641v21.486c0,7.019,3.617,10.743,9.555,10.743c5.884,0,9.501-3.509,9.501-10.474
		v-21.756h6.64v21.433c0,11.283-6.37,16.951-16.25,16.951C45.42,156.501,39.157,150.833,39.157,139.873z"/>
	<path fill="#eee" d="M79.858,127.402h6.532v4.373c1.835-2.645,4.48-4.967,8.908-4.967c6.424,0,10.149,4.319,10.149,10.905
		v18.193h-6.532v-16.195c0-4.427-2.213-6.965-6.1-6.965c-3.779,0-6.424,2.646-6.424,7.072v16.088h-6.532V127.402z"/>
	<path fill="#eee" d="M111.436,147.701v-0.107c0-6.154,4.805-9.178,11.769-9.178c3.185,0,5.452,0.485,7.666,1.188v-0.702
		c0-4.049-2.483-6.208-7.072-6.208c-3.185,0-5.561,0.702-8.152,1.781l-1.728-5.128c3.131-1.404,6.208-2.321,10.743-2.321
		c4.265,0,7.45,1.133,9.447,3.185c2.105,2.052,3.077,5.075,3.077,8.8v16.897h-6.37v-3.563c-1.943,2.322-4.913,4.157-9.286,4.157
		C116.187,156.501,111.436,153.424,111.436,147.701z M130.979,145.65v-1.944c-1.674-0.647-3.887-1.133-6.479-1.133
		c-4.211,0-6.694,1.781-6.694,4.75v0.108c0,2.753,2.43,4.318,5.561,4.318C127.686,151.75,130.979,149.267,130.979,145.65z"/>
	<path fill="#eee" d="M141.233,127.402h7.018l7.666,20.947l7.72-20.947h6.856l-11.661,28.721h-5.884L141.233,127.402z"/>
	<path fill="#eee" d="M172.812,147.701v-0.107c0-6.154,4.805-9.178,11.769-9.178c3.185,0,5.453,0.485,7.666,1.188v-0.702
		c0-4.049-2.483-6.208-7.072-6.208c-3.185,0-5.561,0.702-8.152,1.781l-1.728-5.128c3.131-1.404,6.208-2.321,10.743-2.321
		c4.265,0,7.45,1.133,9.447,3.185c2.105,2.052,3.077,5.075,3.077,8.8v16.897h-6.37v-3.563c-1.943,2.322-4.913,4.157-9.286,4.157
		C177.562,156.501,172.812,153.424,172.812,147.701z M192.354,145.65v-1.944c-1.674-0.647-3.887-1.133-6.479-1.133
		c-4.211,0-6.694,1.781-6.694,4.75v0.108c0,2.753,2.43,4.318,5.561,4.318C189.061,151.75,192.354,149.267,192.354,145.65z"/>
	<path fill="#eee" d="M206.495,116.821h7.019v6.209h-7.019V116.821z M206.765,127.402h6.532v28.505h-6.532V127.402z"/>
	<path fill="#eee" d="M222.203,116.498h6.532v39.409h-6.532V116.498z"/>
	<path fill="#eee" d="M235.374,147.701v-0.107c0-6.154,4.805-9.178,11.769-9.178c3.185,0,5.452,0.485,7.666,1.188v-0.702
		c0-4.049-2.483-6.208-7.072-6.208c-3.186,0-5.561,0.702-8.152,1.781l-1.728-5.128c3.132-1.404,6.209-2.321,10.743-2.321
		c4.266,0,7.45,1.133,9.448,3.185c2.105,2.052,3.077,5.075,3.077,8.8v16.897h-6.371v-3.563c-1.943,2.322-4.912,4.157-9.285,4.157
		C240.124,156.501,235.374,153.424,235.374,147.701z M254.916,145.65v-1.944c-1.673-0.647-3.887-1.133-6.478-1.133
		c-4.211,0-6.694,1.781-6.694,4.75v0.108c0,2.753,2.429,4.318,5.561,4.318C251.623,151.75,254.916,149.267,254.916,145.65z"/>
	<path fill="#eee" d="M275.481,151.48v4.427h-6.532v-39.409h6.532v15.655c2.105-2.969,5.075-5.345,9.718-5.345
		c6.694,0,13.227,5.291,13.227,14.792v0.108c0,9.447-6.479,14.792-13.227,14.792C280.448,156.501,277.479,154.126,275.481,151.48z
		 M291.785,141.709v-0.108c0-5.506-3.725-9.123-8.151-9.123s-8.313,3.671-8.313,9.123v0.108c0,5.452,3.887,9.124,8.313,9.124
		C288.114,150.833,291.785,147.323,291.785,141.709z"/>
	<path fill="#eee" d="M305.547,116.498h6.532v39.409h-6.532V116.498z"/>
	<path fill="#eee" d="M319.042,141.763v-0.107c0-8.152,5.776-14.847,13.929-14.847c9.069,0,13.658,7.127,13.658,15.332
		c0,0.594-0.054,1.188-0.108,1.836h-20.946c0.702,4.643,3.995,7.234,8.206,7.234c3.186,0,5.452-1.188,7.72-3.401l3.833,3.401
		c-2.699,3.238-6.424,5.344-11.661,5.344C325.412,156.555,319.042,150.562,319.042,141.763z M340.15,139.657
		c-0.432-4.211-2.915-7.504-7.234-7.504c-3.994,0-6.802,3.077-7.396,7.504H340.15z"/>
</svg>
